PathFileType	4	(X/Y/Z)	36_2_rein_100_p0_0-349_filt_butterworth.trc
DataRate	CameraRate	NumFrames	NumMarkers	Units	OrigDataRate	OrigDataStartFrame	OrigNumFrames
52.0	52.0	4	27	m	52.0	0	349
Frame#	Time	RHip			RKnee			RAnkle			RBigToe			RSmallToe			RHeel			LHip			LKnee			LAnkle			LBigToe			LSmallToe			LHeel			Neck			Head			Nose			RShoulder			RElbow			RWrist			RThumb			RIndex			RPinky			LShoulder			LElbow			LWrist			LThumb			LIndex			LPinky			
		X1	Y1	Z1	X2	Y2	Z2	X3	Y3	Z3	X4	Y4	Z4	X5	Y5	Z5	X6	Y6	Z6	X7	Y7	Z7	X8	Y8	Z8	X9	Y9	Z9	X10	Y10	Z10	X11	Y11	Z11	X12	Y12	Z12	X13	Y13	Z13	X14	Y14	Z14	X15	Y15	Z15	X16	Y16	Z16	X17	Y17	Z17	X18	Y18	Z18	X19	Y19	Z19	X20	Y20	Z20	X21	Y21	Z21	X22	Y22	Z22	X23	Y23	Z23	X24	Y24	Z24	X25	Y25	Z25	X26	Y26	Z26	X27	Y27	Z27	
0	0.0	0.32819633805783494	0.5562842651599925	-0.08640029769103968	0.3597310808998948	0.6559618862493066	0.3423160924311273	0.39740804682026765	0.7199323857832949	0.7112304065182447	0.3579310901249721	0.5371185931877478	0.7515128463839267	0.42048590923632057	0.5418091017553259	0.7390170863440719	0.37191878775680753	0.79096546291193	0.7597537260450313	0.13405569096541667	0.5472655478747431	-0.07112543559746147	0.14201630286997297	0.6756653949309053	0.35645700740365704	0.16973334740482576	0.7073393034284065	0.7294147848959744	0.18506169819698967	0.4919679821363052	0.7403142172264822	0.13711245938890065	0.5536611371259593	0.7609970725353278	0.18595727516364224	0.7675712837075034	0.7823772982038235	0.19126972983260132	0.5067292505964276	-0.5810283139650189	0.16983259064719897	0.44734296616888725	-0.825869134414815	0.18265840473145178	0.42107862297929344	-0.6893885901207346	0.33738570949825186	0.5091196706007755	-0.5085595780593725	0.38664162952553427	0.44489837467069565	-0.2565934371772095	0.2704620076703579	0.2981174047984755	-0.0882134552042792	0.21819443988538054	0.2971020688130724	0.00017631779905906138	0.2197805777619462	0.27199106291052344	-0.004903928488706347	0.25671466195197096	0.29021204889496194	0.016781936486850356	0.036932748880604355	0.5508542424928345	-0.485063968183965	0.03656448490638934	0.45956482307577473	-0.23483055041687448	0.17023333516069133	0.2936882401719869	-0.08499002403412731	0.25683170068229605	0.2900467211421456	-0.018261608847640533	0.2581283167216244	0.290216755658408	-0.003294020395550602	0.2166598169370223	0.23081677804371317	-0.008581618712905517
1	0.0192307692307692	0.32825869868886454	0.5552641613400592	-0.08339733193913014	0.36100745912731885	0.660331417346416	0.3434831162208869	0.39744334983449386	0.7201464891412603	0.7111597117642698	0.3596383365717159	0.5449244758609048	0.7514641250222058	0.42330555089039584	0.5503189508904403	0.7422372577424995	0.3712760965616593	0.8041907624356355	0.7657087625683431	0.1355840984720185	0.5420051786281117	-0.06797755845555678	0.14559728246336526	0.6650973092257909	0.3539516684389535	0.17177745314635312	0.713935032848243	0.7317933768575658	0.18652927653574491	0.5023858760136426	0.7443552258035532	0.13624993826766624	0.5575019095864386	0.7632239951443713	0.18778620305762944	0.7699575276396372	0.7837552485059516	0.1912727991307846	0.5067390446671608	-0.5810307573763906	0.16984349273528912	0.44737442457966636	-0.825944879431425	0.18126270233370928	0.42037498783211524	-0.6892217538838489	0.33733207113394814	0.5091851076861469	-0.5085479872380178	0.38667627397796667	0.444909618551929	-0.25445545542494463	0.273436527468233	0.2980620222756162	-0.08861267911854795	0.21781019832007273	0.2786141175777687	-0.0063395845462347845	0.21849407352068004	0.2703397083179749	-0.006101890926875628	0.2565931448380625	0.2902668489845616	0.014188190021936564	0.03713107537208439	0.5511880748069973	-0.4840394540138366	0.03658678436680732	0.45842598881021634	-0.23558944970727666	0.1728548078365985	0.29433807298631187	-0.08540223442249853	0.2550684602103767	0.28926001198760437	-0.02055684394062121	0.25564969330637644	0.28270412466945516	-0.005738714026946762	0.2188200924727538	0.2377923443415749	-0.007090976049132025
2	0.0384615384615384	0.32836648097655263	0.5551329314804165	-0.08099096839488351	0.36150748538547073	0.6620656973239584	0.34392872017316606	0.39746384923364014	0.7202770445073223	0.7111721573313481	0.3599647086290664	0.546559277343091	0.7514370279276619	0.4249297495745933	0.5549361637045611	0.7440070377994703	0.3712220610685678	0.811396829288558	0.7699044955179046	0.13663221948545398	0.5385584821513637	-0.06484384798147104	0.14737842547668753	0.6596094346382633	0.3519441850913812	0.17370570908535055	0.7157556931192166	0.7316133527488893	0.18686284326102123	0.5059047741665293	0.7447597172038427	0.13567947764422453	0.5597463838203597	0.7645696486974167	0.18874989101376294	0.7715221851624097	0.7856159272068857	0.1912740407569986	0.5067439278887798	-0.5810282702434499	0.1698448432682138	0.44738892172947775	-0.8260096287545695	0.17980275600777665	0.4196937517423082	-0.6890502449173828	0.33728773340917895	0.5092245363553554	-0.5085264466451201	0.38666078179617136	0.44485803032563465	-0.253302420934987	0.27497773410463483	0.2980171715120382	-0.08881171875000712	0.21728450324208232	0.26665427564040517	-0.009503890834541898	0.21759508891880153	0.26852847741193714	-0.00660427008429482	0.2569928210761027	0.29026640358996336	0.014495649486096605	0.03722312067133864	0.5513056702558671	-0.4836554468421332	0.036525564410298965	0.45782550420290447	-0.23684597794704784	0.17431311914494851	0.29462828932215973	-0.08529766650427922	0.25488630010079744	0.2890059241961289	-0.020958103887073695	0.25457260258671044	0.2787581336759584	-0.006621644141942177	0.21924329320753144	0.23904801179667598	-0.006878902506608248
3	0.0576923076923076	0.3283814110967253	0.5556612317060483	-0.08039212915996667	0.36093317984358775	0.6602484447430413	0.343387374152831	0.39746841092192353	0.7203160533340977	0.7112631524706922	0.35909522226081536	0.5428757543376911	0.7514843675157126	0.42515125360335987	0.5548691400076073	0.7442538254436087	0.3714234443311095	0.8125088314921406	0.771723668786776	0.13751930089602907	0.5359012245256884	-0.06272445635773241	0.14750934121773895	0.6588828644744084	0.35088783019664116	0.17460503137485797	0.7157775913820457	0.731256150964912	0.18628717460614352	0.5036333885361288	0.7422316778177553	0.13542895582556314	0.5605494711698903	0.7651018686491958	0.18934298282381434	0.772597582749411	0.7874467573075019	0.19127885708081202	0.5067483689827201	-0.5810212634727133	0.16985743770108958	0.44738928608253886	-0.8257808658113127	0.17880324370229633	0.4192559278763849	-0.6889322998983815	0.3372607574814578	0.5092502857346425	-0.5084967738099666	0.38658646765803734	0.44475963842469174	-0.2530869973207628	0.2751294770411568	0.2979738083033763	-0.08881351013715538	0.2173170958331413	0.26241984192927964	-0.008901237621291302	0.21817279214913637	0.26658703030573483	-0.0054609964364263465	0.2582861473136293	0.29024382427280865	0.01745900741060707	0.0371716533279834	0.551135523245448	-0.48415106545433323	0.03640833467230685	0.45772185246569086	-0.2383900566635237	0.17466000762812312	0.2945843105338756	-0.08430075651897752	0.2560548729958742	0.28928576843384674	-0.019809140590537268	0.25475504815312033	0.2782357802987732	-0.006279952639249919	0.21818163191337608	0.23548537816849088	-0.007717692264344182
